<?xml version="1.0" encoding="UTF-8" standalone="no"?>
<svg width="140px" height="125px" viewBox="0 0 140 125" version="1.1" xmlns="http://www.w3.org/2000/svg" xmlns:xlink="http://www.w3.org/1999/xlink" xmlns:sketch="http://www.bohemiancoding.com/sketch/ns">
    <!-- Generator: Sketch Beta 3.4 (15138) - http://www.bohemiancoding.com/sketch -->
    <title>facebook</title>
    <desc>Created with Sketch Beta.</desc>
    <defs></defs>
    <g id="Page-1" stroke="none" stroke-width="1" fill="none" fill-rule="evenodd" sketch:type="MSPage">
        <g id="Desktop-HD-Copy-4" sketch:type="MSArtboardGroup" transform="translate(-1001.000000, -2716.000000)" fill="#444444">
            <g id="Connect" sketch:type="MSLayerGroup" transform="translate(0.000000, 2499.000000)">
                <g id="Group" transform="translate(140.000000, 217.000000)" sketch:type="MSShapeGroup">
                    <g id="Group-+-LinkedIn" transform="translate(861.000000, 0.000000)">
                        <path d="M127,113.707682 L127,12.291876 C127,8.81639305 124.183143,6 120.708517,6 L19.2919249,6 C15.8164149,6 13,8.81639305 13,12.291876 L13,113.707682 C13,117.18228 15.8159726,120 19.2919249,120 L120.708517,120 C124.1827,120 127,117.182722 127,113.707682 Z M91.6583501,120 L91.6583501,75.8529173 L106.476488,75.8529173 L108.695294,58.6480159 L91.6583501,58.6480159 L91.6583501,47.6637733 C91.6583501,42.6825574 93.041565,39.288023 100.184563,39.288023 L109.295114,39.2840419 L109.295114,23.89584 C107.719479,23.6861698 102.311361,23.2177294 96.019436,23.2177294 C82.8839813,23.2177294 73.8910937,31.2356248 73.8910937,45.959871 L73.8910937,58.6480159 L59.0349143,58.6480159 L59.0349143,75.8529173 L73.8910937,75.8529173 L73.8910937,120 L91.6583501,120 Z" id="Blue_1_"></path>
                    </g>
                </g>
            </g>
        </g>
    </g>
</svg>