<?xml version="1.0" encoding="UTF-8" standalone="no"?>
<svg width="128px" height="110px" viewBox="0 0 128 110" version="1.1" xmlns="http://www.w3.org/2000/svg" xmlns:xlink="http://www.w3.org/1999/xlink" xmlns:sketch="http://www.bohemiancoding.com/sketch/ns">
    <!-- Generator: Sketch Beta 3.4 (15510) - http://www.bohemiancoding.com/sketch -->
    <title>Group + @</title>
    <desc>Created with Sketch Beta.</desc>
    <defs></defs>
    <g id="Page-1" stroke="none" stroke-width="1" fill="none" fill-rule="evenodd" sketch:type="MSPage">
        <g id="Desktop-HD-Copy-4" sketch:type="MSArtboardGroup" transform="translate(-676.000000, -2724.000000)" stroke="#444444" stroke-width="8">
            <g id="Connect" sketch:type="MSLayerGroup" transform="translate(0.000000, 2499.000000)">
                <g id="Group" transform="translate(140.000000, 217.000000)" sketch:type="MSShapeGroup">
                    <g id="Group-+-@" transform="translate(530.000000, 0.000000)">
                        <g id="Medium" transform="translate(10.000000, 12.000000)">
                            <path d="M82.965283,1.05626599 C81.1607547,0.15299932 79.6845283,1.06646599 79.6845283,3.08606553 L79.6845283,83.4269333 L112.615472,99.9112667 C116.239245,101.7246 119.176981,100.455267 119.176981,97.0756667 L119.176981,19.7098 C119.176981,19.3868 118.993585,19.0898667 118.704906,18.9448 L82.965283,1.05626599" id="Stroke-4"></path>
                            <path d="M40.1932075,63.6593333 L77.7622642,2.540939 C78.8196226,0.820538547 81.1607547,0.153005213 82.965283,1.05627188 L118.74566,18.9663333 C118.977736,19.0819333 119.060377,19.3720667 118.924528,19.5930667 L79.6845283,83.4269333 L40.1932075,63.6593333" id="Stroke-8" fill="#444444"></path>
                            <path d="M6.16867925,2.15106202 C3.16075472,0.64486202 2.14301887,1.75892869 3.9045283,4.62626213 L40.1932019,63.6593333 L79.6845226,83.4269333 L40.2781075,19.3199333 C40.2226358,19.2292667 40.1422585,19.1567333 40.0471642,19.1091333 L6.16867925,2.15106202" id="Stroke-12" fill="#F5F5F5"></path>
                            <path d="M40.1932075,97.0756667 C40.1932075,100.441667 37.7320755,101.963733 34.725283,100.458667 L3.98150943,85.0691333 C2.17698113,84.1658667 0.700754717,81.7745333 0.700754717,79.7549333 L0.700754717,4.31006553 C0.700754717,1.61726508 2.66943396,0.398931747 5.07509434,1.60366508 L39.9803774,19.0751333 C40.110566,19.1408667 40.1932075,19.2734667 40.1932075,19.4196667 L40.1932075,97.0756667" id="Stroke-16" fill="#444444"></path>
                        </g>
                    </g>
                </g>
            </g>
        </g>
    </g>
</svg>