<?xml version="1.0" encoding="UTF-8" standalone="no"?>
<svg width="140px" height="125px" viewBox="0 0 140 125" version="1.1" xmlns="http://www.w3.org/2000/svg" xmlns:xlink="http://www.w3.org/1999/xlink" xmlns:sketch="http://www.bohemiancoding.com/sketch/ns">
    <!-- Generator: Sketch Beta 3.4 (15138) - http://www.bohemiancoding.com/sketch -->
    <title>medium</title>
    <desc>Created with Sketch Beta.</desc>
    <defs></defs>
    <g id="Page-1" stroke="none" stroke-width="1" fill="none" fill-rule="evenodd" sketch:type="MSPage">
        <g id="Desktop-HD-Copy-4" sketch:type="MSArtboardGroup" transform="translate(-670.000000, -2716.000000)" fill="#444444">
            <g id="Connect" sketch:type="MSLayerGroup" transform="translate(0.000000, 2499.000000)">
                <g id="Group" transform="translate(140.000000, 217.000000)" sketch:type="MSShapeGroup">
                    <g id="Group-+-@" transform="translate(530.000000, 0.000000)">
                        <path d="M135,97.75 L129.8585,97.75 C127.949667,97.75 125.25,94.9963833 125.25,93.233475 L125.25,29.3375 C125.25,27.572425 127.949667,25.1666667 129.8585,25.1666667 L135,25.1666667 L135,10 L88.4166667,10 L88.4166667,25.1666667 L98.1666667,25.1666667 L98.1666667,92.3333333 L97.6889167,92.3333333 L74.9207167,10 L57.2932583,10 L34.81875,92.3333333 L34.25,92.3333333 L34.25,25.1666667 L44,25.1666667 L44,10 L5,10 L5,25.1666667 L9.9939175,25.1666667 C12.05055,25.1666667 14.75,27.572425 14.75,29.3375 L14.75,93.233475 C14.75,94.9963833 12.05055,97.75 9.9939175,97.75 L5,97.75 L5,112.916667 L53.7677667,112.916667 L69.7791083,53.3333333 L70.2195917,53.3333333 L86.379025,112.916667 L135,112.916667 L135,97.75" id="path14" transform="translate(70.000000, 61.458333) scale(1, -1) translate(-70.000000, -61.458333) "></path>
                    </g>
                </g>
            </g>
        </g>
    </g>
</svg>